<?xml version="1.0" standalone="no"?>
<!DOCTYPE svg PUBLIC "-//W3C//DTD SVG 20010904//EN"
 "http://www.w3.org/TR/2001/REC-SVG-20010904/DTD/svg10.dtd">
<svg version="1.0" xmlns="http://www.w3.org/2000/svg"
 width="2172.000000pt" height="400.000000pt" viewBox="0 0 2172.000000 400.000000"
 preserveAspectRatio="xMidYMid meet">
<g transform="translate(0.000000,400.000000) scale(0.100000,-0.100000)"
fill="#000000" stroke="none">
<path fill="#509f60" stroke="none" d="M2703 3066 c-13 -7 -31 -19 -40 -28 -10 -8 -35 -22 -55 -32 -20 -9
-40 -21 -44 -27 -3 -6 -17 -15 -31 -20 -35 -13 -20 -28 72 -74 41 -20 77 -41
81 -46 3 -5 25 -18 49 -29 24 -11 47 -24 50 -30 3 -5 23 -17 43 -27 20 -10 53
-28 72 -41 19 -13 54 -32 77 -43 23 -10 45 -23 48 -29 3 -6 26 -19 50 -30 24
-11 47 -25 50 -31 4 -5 18 -14 31 -19 l24 -10 0 -395 c0 -217 4 -395 8 -395
13 0 71 30 77 40 3 4 34 23 70 41 36 18 72 40 80 49 12 14 15 76 15 403 1 213
-2 392 -5 397 -3 6 -26 19 -50 30 -24 11 -47 24 -50 30 -3 5 -23 17 -43 27
-20 10 -53 28 -72 41 -19 13 -54 32 -78 43 -24 11 -46 27 -49 35 -3 8 -24 23
-47 33 -22 11 -57 30 -76 43 -19 13 -52 31 -72 41 -20 10 -40 22 -43 27 -10
16 -67 40 -94 39 -14 -1 -36 -7 -48 -13z"/>
<path fill="#509f60" stroke="none" d="M2415 2881 c-3 -6 -10 -9 -14 -6 -5 2 -17 -5 -27 -16 -10 -11 -46
-33 -81 -50 -34 -16 -65 -34 -68 -39 -4 -6 -26 -19 -50 -30 -24 -11 -46 -24
-49 -29 -4 -5 -58 -35 -121 -66 -63 -31 -117 -60 -120 -66 -4 -5 -23 -17 -43
-27 -20 -10 -54 -28 -75 -41 l-38 -23 2 -144 c1 -117 3 -144 15 -144 8 0 14 3
14 8 0 4 15 13 33 21 17 8 41 21 52 31 11 9 37 24 57 34 20 9 40 21 43 26 3 5
35 23 70 40 35 17 67 35 70 40 4 6 26 19 50 30 24 11 46 24 50 29 3 5 31 22
63 37 31 15 65 34 74 42 9 8 36 24 60 36 45 23 63 20 105 -16 10 -8 35 -22 55
-32 20 -9 40 -21 43 -26 3 -5 23 -17 43 -27 20 -10 53 -28 72 -41 19 -13 54
-32 77 -43 23 -10 45 -23 48 -29 3 -6 26 -19 50 -30 24 -11 46 -24 50 -29 3
-5 31 -22 63 -37 31 -15 67 -37 80 -48 l23 -20 -3 149 c-3 143 -4 150 -25 161
-13 6 -31 17 -40 26 -10 8 -44 27 -75 42 -32 15 -60 32 -63 37 -4 5 -26 18
-50 29 -24 11 -47 24 -50 30 -3 5 -23 17 -43 27 -20 10 -53 28 -72 41 -19 13
-54 32 -77 43 -23 10 -45 23 -48 29 -3 5 -23 17 -43 26 -20 10 -47 26 -58 36
-15 13 -24 16 -29 9z"/>
<path d="M5200 2619 c-41 -10 -95 -29 -120 -41 -82 -41 -165 -142 -192 -233
-20 -68 -38 -184 -38 -245 0 -66 20 -200 38 -255 43 -137 165 -244 320 -281
70 -16 242 -18 314 -3 176 37 289 144 344 324 24 79 25 332 2 416 -51 180
-142 270 -321 315 -115 30 -240 31 -347 3z m288 -235 c20 -8 47 -24 59 -35 88
-83 98 -379 17 -486 -30 -40 -66 -59 -134 -74 -64 -14 -165 3 -212 35 -121 82
-126 450 -6 539 60 45 195 55 276 21z"/>
<path d="M14825 2629 c-138 -33 -196 -62 -258 -128 -97 -104 -132 -229 -124
-446 4 -107 10 -154 26 -199 74 -208 228 -306 479 -306 120 0 184 12 272 52
111 49 177 129 221 263 20 60 23 91 24 220 0 257 -52 383 -196 476 -100 64
-318 97 -444 68z m211 -233 c73 -19 100 -41 131 -104 26 -54 28 -65 28 -192 0
-158 -14 -209 -74 -263 -82 -74 -271 -71 -343 6 -39 41 -56 84 -67 175 -18
143 21 307 83 347 32 21 110 43 156 44 19 0 58 -5 86 -13z"/>
<path fill="#509f60" stroke="none" d="M3518 2239 c2 -293 0 -395 -9 -406 -7 -7 -32 -23 -55 -33 -24 -11
-46 -24 -49 -30 -3 -6 -26 -19 -50 -30 -24 -11 -47 -24 -50 -30 -3 -6 -25 -19
-48 -29 -23 -11 -58 -30 -77 -43 -19 -13 -52 -31 -72 -41 -20 -10 -40 -22 -43
-27 -3 -5 -23 -17 -43 -26 -20 -10 -45 -24 -54 -32 -10 -8 -37 -24 -60 -36
-54 -27 -58 -47 -16 -65 18 -8 45 -22 60 -33 14 -10 52 -32 84 -48 55 -30 59
-30 90 -15 18 9 36 20 39 25 3 6 26 19 50 30 24 11 46 24 50 30 3 5 35 23 70
40 35 17 67 35 70 40 4 6 26 19 50 30 24 11 46 24 50 30 3 5 35 23 70 40 35
17 67 35 70 40 4 6 25 19 48 29 81 37 76 9 78 450 l3 392 -87 44 c-49 23 -96
50 -106 59 -10 9 -23 16 -29 16 -7 0 -12 5 -12 10 0 6 -6 10 -12 10 -10 0 -12
-83 -10 -391z"/>
<path d="M19760 2620 l-415 -5 -3 -94 c-2 -69 1 -97 10 -103 7 -4 77 -8 156
-8 l142 0 0 -420 0 -421 133 3 132 3 -4 417 -3 417 153 3 154 3 3 99 c3 98 -4
120 -33 114 -5 -2 -197 -5 -425 -8z"/>
<path d="M6178 2105 c-2 -283 -1 -520 0 -525 2 -6 56 -10 133 -10 l128 0 3
153 3 152 175 5 c163 5 179 7 231 31 72 34 134 96 168 168 23 50 26 67 26 171
0 110 -1 118 -33 182 -39 80 -102 139 -178 168 -51 18 -78 20 -354 20 l-300 0
-2 -515z m538 289 c48 -23 68 -65 69 -144 0 -75 -20 -116 -69 -146 -25 -15
-56 -20 -153 -22 l-123 -4 0 166 0 166 121 0 c91 0 129 -4 155 -16z"/>
<path d="M7315 2608 c-3 -7 -4 -242 -3 -523 l3 -510 380 0 380 0 0 100 0 100
-248 5 -249 5 -5 102 -5 103 224 2 223 3 0 100 0 100 -223 3 -224 2 4 103 4
102 249 5 250 5 0 100 0 100 -378 3 c-297 2 -379 0 -382 -10z"/>
<path d="M8360 2095 l0 -525 130 0 130 0 0 306 c0 183 4 303 9 300 8 -5 122
-166 355 -503 l71 -103 114 3 113 2 2 520 1 520 -133 3 -132 3 0 -301 c0 -165
-3 -300 -7 -300 -5 0 -102 135 -218 300 l-209 300 -113 0 -113 0 0 -525z"/>
<path d="M9951 2578 c-10 -24 -28 -72 -41 -108 -20 -59 -186 -499 -289 -772
-23 -59 -41 -112 -41 -117 0 -7 46 -11 135 -11 120 0 136 2 141 18 12 35 66
178 77 200 11 22 12 22 180 20 l169 -3 14 -35 c7 -19 27 -72 44 -117 l31 -83
135 0 c100 0 134 3 134 13 0 6 -13 46 -29 87 -50 127 -185 485 -260 690 -40
107 -78 210 -86 228 l-15 32 -140 0 -141 0 -18 -42z m198 -321 c16 -45 44
-118 60 -162 17 -44 31 -83 31 -87 0 -5 -58 -8 -130 -8 -71 0 -130 3 -130 8
-1 18 125 340 131 336 4 -2 21 -41 38 -87z"/>
<path d="M10935 2608 c-3 -7 -4 -242 -3 -523 l3 -510 130 0 130 0 3 152 3 151
177 4 c165 3 181 5 232 29 137 64 210 203 197 374 -11 151 -91 269 -212 314
-52 20 -75 21 -356 21 -230 0 -301 -3 -304 -12z m543 -218 c84 -51 84 -222 -1
-284 -23 -17 -47 -21 -152 -24 l-125 -4 0 166 0 166 123 0 c105 0 127 -3 155
-20z"/>
<path d="M12070 2095 l0 -526 132 3 132 3 0 520 0 520 -132 3 -132 3 0 -526z"/>
<path d="M13550 2618 c0 -2 -1 -237 -2 -523 l-1 -520 131 -3 132 -3 0 211 0
210 213 2 212 3 0 100 0 100 -212 3 -213 2 0 105 0 105 243 2 242 3 3 103 3
102 -376 0 c-206 0 -375 -1 -375 -2z"/>
<path d="M15760 2095 l0 -525 130 0 130 0 0 165 0 165 84 0 c65 0 88 -4 105
-17 11 -10 43 -72 71 -138 79 -190 54 -170 208 -173 102 -2 132 0 132 10 0 20
-129 309 -153 342 l-21 29 25 16 c13 8 47 38 75 66 67 67 89 130 87 240 -3
170 -68 271 -212 325 -47 18 -78 20 -356 20 l-305 0 0 -525z m539 302 c63 -32
92 -145 54 -216 -30 -58 -70 -71 -210 -71 l-123 0 0 150 0 150 128 0 c81 0
136 -5 151 -13z"/>
<path d="M16930 2095 l0 -525 130 0 130 0 0 285 c0 157 3 285 8 285 4 0 48
-87 99 -192 l92 -193 69 -3 c50 -2 72 1 81 12 6 7 50 94 97 192 46 99 89 181
94 182 7 3 10 -89 10 -270 0 -150 0 -279 0 -285 0 -10 33 -13 130 -13 l130 0
0 525 0 525 -130 0 -129 0 -42 -87 c-23 -49 -58 -124 -79 -168 -128 -272 -151
-318 -160 -309 -8 9 -242 494 -261 542 -8 21 -13 22 -139 22 l-130 0 0 -525z"/>
<path d="M18635 2608 c-21 -67 -303 -818 -350 -936 -19 -46 -32 -89 -29 -93 3
-5 64 -9 135 -9 l130 0 18 43 c10 23 28 71 41 107 12 36 27 71 33 78 7 9 51
12 176 10 l166 -3 38 -100 c21 -55 42 -107 46 -115 7 -12 35 -16 136 -18 71
-1 132 1 137 6 4 4 -4 37 -18 73 -15 35 -39 98 -54 139 -16 41 -71 188 -123
325 -85 226 -172 460 -182 493 -3 9 -42 12 -150 12 -108 0 -147 -3 -150 -12z
m215 -423 c33 -88 60 -165 60 -172 0 -10 -30 -13 -125 -13 -110 0 -125 2 -125
17 0 9 23 77 51 152 29 75 56 147 61 160 5 13 11 22 13 19 2 -2 32 -76 65
-163z"/>
<path fill="#509f60" stroke="none" d="M2390 2475 c-7 -9 -33 -25 -56 -35 -24 -11 -46 -24 -49 -30 -3 -6
-25 -19 -48 -29 -23 -11 -58 -30 -77 -43 -19 -13 -52 -31 -72 -41 -20 -10 -40
-22 -43 -27 -3 -5 -23 -17 -43 -27 -20 -10 -53 -28 -72 -41 -19 -13 -53 -32
-76 -42 -22 -11 -47 -26 -54 -35 -7 -8 -18 -15 -25 -15 -7 0 -17 -6 -23 -12
-6 -8 -12 -162 -16 -406 -6 -368 -5 -393 11 -399 10 -4 36 -18 58 -32 63 -40
86 -51 96 -46 4 3 14 -3 21 -15 7 -11 21 -20 30 -20 10 0 18 -4 18 -10 0 -5 6
-10 13 -10 9 0 11 83 9 391 -2 287 0 395 9 405 6 8 40 28 75 44 35 17 66 35
69 40 4 6 26 19 50 30 24 11 46 24 50 30 3 5 35 23 70 40 35 17 67 35 70 40 4
6 26 19 50 30 24 11 47 24 50 30 3 5 23 17 43 27 20 9 55 28 77 42 22 14 47
29 55 33 11 5 11 7 2 7 -7 1 -32 14 -55 29 -23 16 -59 36 -79 45 -20 10 -40
22 -43 27 -6 9 -63 40 -75 40 -4 0 -13 -7 -20 -15z"/>
<path d="M12627 2123 c-4 -3 -7 -50 -7 -104 0 -94 1 -99 23 -104 12 -3 155 -4
317 -3 l295 3 0 105 0 105 -311 3 c-171 1 -313 -1 -317 -5z"/>
<path fill="#509f60" stroke="none" d="M2290 2015 c-7 -8 -37 -27 -69 -41 -31 -15 -64 -34 -74 -42 -9 -9
-27 -20 -40 -26 l-22 -12 -5 -393 c-6 -443 -14 -399 82 -445 32 -15 60 -32 63
-37 4 -5 26 -18 50 -29 24 -11 47 -24 50 -30 3 -6 25 -19 49 -30 23 -10 49
-26 56 -35 7 -8 18 -15 25 -15 7 0 16 -7 19 -16 3 -9 13 -14 20 -11 8 3 17 -1
20 -9 3 -8 12 -14 19 -14 8 0 20 -7 27 -15 7 -9 33 -25 56 -35 24 -11 45 -24
49 -29 9 -15 66 -41 90 -41 24 0 81 26 90 41 4 5 26 18 50 29 24 11 47 25 50
31 4 5 19 15 33 20 l27 10 -25 20 c-14 11 -41 27 -60 36 -19 10 -51 28 -70 41
-19 13 -54 32 -77 43 -23 10 -45 23 -48 29 -3 6 -26 19 -50 30 -24 11 -47 24
-50 30 -3 6 -26 19 -50 30 -24 11 -46 24 -50 30 -3 5 -35 23 -70 40 -35 17
-67 35 -71 41 -3 6 -17 14 -30 19 l-24 10 0 395 c0 329 -2 395 -14 395 -7 0
-19 -7 -26 -15z"/>
<path fill="#509f60" stroke="none" d="M2422 1445 c3 -143 4 -150 25 -161 13 -6 31 -17 40 -26 10 -8 35 -22
55 -32 20 -9 40 -21 43 -26 3 -6 26 -19 50 -30 24 -11 46 -24 50 -30 3 -5 35
-23 70 -40 35 -17 67 -35 70 -40 4 -6 26 -19 50 -30 24 -11 47 -24 50 -30 3
-6 25 -19 49 -30 23 -10 49 -26 56 -35 7 -8 19 -15 26 -15 8 0 14 -4 14 -10 0
-5 7 -10 15 -10 8 0 15 3 15 8 0 4 15 13 33 21 17 8 50 26 72 40 22 15 57 34
77 44 20 10 40 22 43 27 3 6 26 19 50 30 24 11 47 24 50 30 3 6 26 19 50 30
24 11 47 24 50 30 3 6 27 20 53 31 26 12 52 29 59 38 6 9 14 13 18 9 7 -6 22
1 88 41 l37 23 -2 144 c-2 107 -6 144 -15 144 -7 0 -13 -3 -13 -8 0 -4 -15
-13 -32 -21 -18 -8 -42 -21 -53 -31 -11 -9 -37 -24 -57 -34 -20 -9 -40 -21
-43 -26 -3 -5 -35 -23 -70 -40 -35 -17 -67 -35 -70 -40 -4 -6 -26 -19 -50 -30
-24 -11 -46 -24 -50 -29 -3 -5 -31 -22 -63 -37 -31 -15 -65 -34 -74 -42 -9 -8
-36 -24 -60 -36 -45 -23 -63 -20 -105 16 -10 8 -35 22 -55 32 -20 9 -40 21
-43 26 -3 5 -35 23 -70 40 -35 17 -67 35 -70 40 -4 6 -26 19 -50 30 -24 11
-47 24 -50 30 -3 5 -23 17 -43 26 -20 10 -44 23 -52 30 -8 7 -41 26 -74 43
-32 16 -67 38 -77 47 -19 17 -20 15 -17 -131z"/>
<path fill="#509f60" stroke="none" d="M4853 864 c-3 -8 -1 -20 4 -25 5 -5 2942 -8 7684 -7 7666 3 7674 3
7674 23 0 20 -8 20 -7678 23 -6964 2 -7678 1 -7684 -14z"/>
</g>
</svg>
